<svg width="21" height="16" viewBox="0 0 21 16" fill="none" xmlns="http://www.w3.org/2000/svg">
<path d="M12.8556 0C12.657 0.355687 12.48 0.72302 12.3256 1.1C10.8083 0.860051 9.2628 0.860051 7.74556 1.1C7.59115 0.72302 7.41416 0.355687 7.21556 0C5.78635 0.244201 4.39697 0.681537 3.08556 1.3C0.740502 4.68429 -0.323001 8.79295 0.0855616 12.89C1.6138 14.0389 3.32902 14.9151 5.15556 15.48C5.57148 14.9306 5.94266 14.3487 6.26556 13.74C5.66964 13.5203 5.09686 13.2423 4.55556 12.91C4.70402 12.8112 4.84446 12.7009 4.97556 12.58C6.55402 13.3403 8.28353 13.7351 10.0356 13.7351C11.7876 13.7351 13.5171 13.3403 15.0956 12.58C15.2356 12.7 15.3756 12.81 15.5156 12.91C14.9713 13.2396 14.3991 13.5207 13.8056 13.75C14.1151 14.3725 14.4763 14.968 14.8856 15.53C16.7098 14.967 18.4221 14.0906 19.9456 12.94C20.3639 8.8422 19.2996 4.73018 16.9456 1.35C15.6489 0.718737 14.2732 0.26467 12.8556 0ZM6.71556 10.55C6.21515 10.5141 5.7481 10.2857 5.41248 9.91277C5.07686 9.53986 4.89876 9.05142 4.91556 8.55C4.89622 8.04792 5.07345 7.55808 5.40957 7.18461C5.7457 6.81114 6.21422 6.58347 6.71556 6.55C7.2169 6.58347 7.68542 6.81114 8.02155 7.18461C8.35767 7.55808 8.5349 8.04792 8.51556 8.55C8.5349 9.05208 8.35767 9.54192 8.02155 9.91539C7.68542 10.2889 7.2169 10.5165 6.71556 10.55ZM13.3556 10.55C12.8551 10.5141 12.3881 10.2857 12.0525 9.91277C11.7169 9.53986 11.5388 9.05142 11.5556 8.55C11.5362 8.04792 11.7134 7.55808 12.0496 7.18461C12.3857 6.81114 12.8542 6.58347 13.3556 6.55C13.8578 6.58097 14.3279 6.8079 14.6645 7.18195C15.0012 7.55599 15.1775 8.04725 15.1556 8.55C15.1775 9.05275 15.0012 9.54401 14.6645 9.91805C14.3279 10.2921 13.8578 10.519 13.3556 10.55Z" fill="white"/>
</svg>
