<svg width="75" height="75" viewBox="0 0 75 75" fill="none" xmlns="http://www.w3.org/2000/svg">
<path d="M54.2654 27.4928C54.2654 25.3167 56.0278 23.5543 58.2039 23.5543C60.3801 23.5543 62.1424 25.3167 62.1424 27.4928C62.1424 29.669 60.3801 31.4313 58.2039 31.4313C56.0278 31.4313 54.2654 29.669 54.2654 27.4928ZM16.7961 31.4313C18.9722 31.4313 20.7346 29.669 20.7346 27.4928C20.7346 25.3167 18.9722 23.5543 16.7961 23.5543C14.6199 23.5543 12.8576 25.3167 12.8576 27.4928C12.8423 29.669 14.6199 31.4313 16.7961 31.4313ZM0 44.2123V10.7734C0 7.18736 2.91173 4.27563 6.49775 4.27563H68.4869C72.0729 4.27563 74.9847 7.18736 74.9847 10.7734V44.2123C74.9847 47.7983 72.0729 50.71 68.4869 50.71H6.49775C2.92705 50.71 0 47.7983 0 44.2123ZM5.54761 37.4693C5.91541 37.408 6.31385 37.3621 6.69698 37.3621C10.329 37.3621 13.2714 40.3044 13.2714 43.9364C13.2714 44.3502 13.2254 44.7487 13.1641 45.1471H61.2842C61.2536 44.8866 61.2383 44.6107 61.2383 44.3349C61.2383 40.7029 64.1806 37.7605 67.8126 37.7605C68.3796 37.7605 68.916 37.8371 69.4371 37.9597V17.8075C68.916 17.9454 68.3796 18.0067 67.8126 18.0067C64.1806 18.0067 61.2383 15.0644 61.2383 11.4324C61.2383 10.8807 61.3149 10.3443 61.4375 9.82324H13.1641C13.2407 10.2217 13.2714 10.6201 13.2714 11.0339C13.2714 14.6659 10.329 17.6083 6.69698 17.6083C6.29853 17.6083 5.91541 17.5776 5.54761 17.501V37.4693ZM72.2262 55.1083H2.88108C1.34859 55.1083 0.107274 56.3496 0.107274 57.8821C0.107274 59.4146 1.34859 60.6559 2.88108 60.6559H72.2262C73.7587 60.6559 75 59.4146 75 57.8821C75 56.3496 73.7587 55.1083 72.2262 55.1083ZM72.2262 65.1767H2.88108C1.34859 65.1767 0.107274 66.4181 0.107274 67.9505C0.107274 69.483 1.34859 70.7243 2.88108 70.7243H72.2262C73.7587 70.7243 75 69.483 75 67.9505C75 66.4181 73.7587 65.1767 72.2262 65.1767ZM23.2632 27.4928C23.2632 19.6465 29.6537 13.256 37.5 13.256C45.3463 13.256 51.7368 19.6465 51.7368 27.4928C51.7368 35.3392 45.3463 41.7297 37.5 41.7297C29.6537 41.7297 23.2632 35.3392 23.2632 27.4928ZM30.2207 27.9679L32.8872 30.6498L35.6457 33.4236L38.4195 30.6651L44.7793 24.3359L42.0208 21.5621L35.661 27.8913L32.9945 25.2094L30.2207 27.9679Z" fill="white"/>
</svg>
