<svg width="75" height="71" viewBox="0 0 75 71" fill="none" xmlns="http://www.w3.org/2000/svg">
<path d="M72.4706 25.4097L50.1099 22.2487L40.2128 2.18811C38.9833 -0.152293 35.6023 0.334023 34.7878 2.18811L24.8907 22.2487L2.51469 25.4097C-0.00568419 25.5617 -0.804829 28.586 0.916405 30.4553L17.053 46.0934L13.2109 68.0536C12.7653 70.7588 15.7774 72.2785 17.5294 71.2147L37.4926 60.7893L57.4559 71.0627C59.5459 72.1266 62.0356 70.6372 61.7743 68.0688L57.9323 46.0934L74.0688 30.4553C76.0206 28.4036 74.6221 25.6681 72.4706 25.4097ZM52.661 42.7804C52.0155 43.5706 51.7082 44.5129 51.8619 45.4703L54.8894 63.1601L38.9219 54.7863C37.8922 54.3608 36.924 54.3608 36.048 54.7863L20.0805 63.1601L23.108 45.4703C23.2617 44.3609 22.9543 43.4187 22.3089 42.7804L9.38426 30.3033L27.2728 27.7805C28.2256 27.6286 29.0248 27.1422 29.5166 26.2L37.508 10.2427L45.4994 26.2C45.9758 26.9903 46.775 27.6286 47.7432 27.7805L65.601 30.3033L52.661 42.7804Z" fill="white"/>
</svg>
